<svg width="128" height="128" viewBox="0 0 128 128" fill="none" xmlns="http://www.w3.org/2000/svg">
  <defs>
    <linearGradient id="bg" x1="18" y1="18" x2="110" y2="110" gradientUnits="userSpaceOnUse">
      <stop stop-color="#FFD65A"/>
      <stop offset="1" stop-color="#F0A11E"/>
    </linearGradient>
    <linearGradient id="plate" x1="42" y1="34" x2="89" y2="93" gradientUnits="userSpaceOnUse">
      <stop stop-color="#FFFDF7"/>
      <stop offset="1" stop-color="#F4ECDD"/>
    </linearGradient>
  </defs>
  <rect x="14" y="14" width="100" height="100" rx="28" fill="#181511"/>
  <rect x="20" y="20" width="88" height="88" rx="24" fill="url(#bg)"/>
  <circle cx="64" cy="64" r="27" fill="url(#plate)"/>
  <circle cx="64" cy="64" r="24" stroke="#E9D9B5" stroke-width="2.5" stroke-dasharray="1 4"/>
  <path d="M50 48L47 81" stroke="#23150E" stroke-width="2.4" stroke-linecap="round" stroke-linejoin="round"/>
  <path d="M45 50L47 70L50 48L53 70L55 50" stroke="#23150E" stroke-width="2.4" stroke-linecap="round" stroke-linejoin="round"/>
  <path d="M47 81L50 86L53 81" stroke="#23150E" stroke-width="2.4" stroke-linecap="round" stroke-linejoin="round"/>
  <path d="M64 46C58 46 54 54 54 63C54 72 59 78 64 82C69 78 74 72 74 63C74 54 70 46 64 46Z" stroke="#23150E" stroke-width="2.4" stroke-linecap="round" stroke-linejoin="round"/>
  <path d="M64 46V86" stroke="#23150E" stroke-width="2.4" stroke-linecap="round"/>
  <path d="M60 81L64 86L68 81" stroke="#23150E" stroke-width="2.4" stroke-linecap="round" stroke-linejoin="round"/>
  <path d="M78 50V62" stroke="#23150E" stroke-width="2.4" stroke-linecap="round"/>
  <path d="M82 50V62" stroke="#23150E" stroke-width="2.4" stroke-linecap="round"/>
  <path d="M86 50V62" stroke="#23150E" stroke-width="2.4" stroke-linecap="round"/>
  <path d="M78 62L77 81" stroke="#23150E" stroke-width="2.4" stroke-linecap="round"/>
  <path d="M82 62V81" stroke="#23150E" stroke-width="2.4" stroke-linecap="round"/>
  <path d="M86 62L87 81" stroke="#23150E" stroke-width="2.4" stroke-linecap="round"/>
  <path d="M77 81L82 86L87 81" stroke="#23150E" stroke-width="2.4" stroke-linecap="round" stroke-linejoin="round"/>
</svg>
